<?xml version="1.0" encoding="utf-8"?>
<!-- Generator: Adobe Illustrator 21.1.0, SVG Export Plug-In . SVG Version: 6.00 Build 0)  -->
<svg version="1.1" id="Layer_1" xmlns="http://www.w3.org/2000/svg" xmlns:xlink="http://www.w3.org/1999/xlink" x="0px" y="0px"
	 viewBox="0 0 499 499" style="enable-background:new 0 0 499 499;" xml:space="preserve">
<style type="text/css">
	.st0{fill:#FF5000;stroke:#FF5000;stroke-miterlimit:10;}
	.st1{fill:#B2B3B3;}
	.st2{fill:#ABE0F1;}
	.st3{fill:#808080;}
	.st4{fill:#C5E9FB;}
	.st5{fill:#DBE7FB;}
</style>
<circle class="st0" cx="249.5" cy="249.5" r="249.5"/>
<g>
	<path class="st1" d="M112.2,370.7h274.6c6.9,0,12.6-8.1,12.6-18l-18.4-71.1H117.9l-18.4,71.1C99.6,362.6,105.2,370.7,112.2,370.7z"
		/>
	<path d="M370,128.3H129c-6.1,0-11.1,5.4-11.1,12.1v122v3.4v16.7h263.1v-16.7v-3.4v-122C381.1,133.7,376.1,128.3,370,128.3z"/>
	<rect x="131.7" y="140.9" class="st2" width="235.6" height="129.1"/>
	<polygon class="st3" points="374.8,326.2 124.2,326.2 131.7,295 367.3,295 	"/>
	<polyline class="st3" points="277.3,335.4 281.3,359.1 217.7,359.1 221.7,335.4 	"/>
	<polygon class="st4" points="131.7,169.1 163.6,140.9 187.8,140.9 131.7,192.6 	"/>
	<polygon class="st5" points="131.7,215 131.7,249.5 243.8,140.9 208.8,140.9 	"/>
</g>
</svg>
