<?xml version="1.0" encoding="utf-8"?>
<!-- Generator: Adobe Illustrator 21.1.0, SVG Export Plug-In . SVG Version: 6.00 Build 0)  -->
<svg version="1.1" id="Layer_1" xmlns="http://www.w3.org/2000/svg" xmlns:xlink="http://www.w3.org/1999/xlink" x="0px" y="0px"
	 viewBox="0 0 499 499" style="enable-background:new 0 0 499 499;" xml:space="preserve">
<style type="text/css">
	.st0{fill:#FF5000;stroke:#FF5000;stroke-miterlimit:10;}
	.st1{fill:#B0DBB8;stroke:#FF5000;stroke-miterlimit:10;}
	.st2{fill:#D2EDF0;}
	.st3{fill:#CFECF7;}
	.st4{fill:#D6F0FC;stroke:#FF5000;stroke-miterlimit:10;}
	.st5{fill:#FFFFFF;stroke:#FFFFFF;stroke-miterlimit:10;}
	.st6{fill:none;stroke:#FFFFFF;stroke-width:2;stroke-miterlimit:10;}
	.st7{fill:#E1F2FC;}
	.st8{fill:none;}
	.st9{fill:#D3BDDC;}
	.st10{fill:#E8F2D6;}
</style>
<circle class="st0" cx="249.5" cy="249.5" r="249.5"/>
<g>
	<path class="st1" d="M343,96.9v181.3c0,26.9-36.3,48.7-81,48.7c-44.7,0-81-21.8-81-48.7V96.9c0-26.9,36.3-48.7,81-48.7
		C306.8,48.3,343,70,343,96.9z"/>
	<path class="st2" d="M318.9,311.8V131.5c0,0-4.9,5.1-23.4,9.7v179.7C307.2,318.9,318.9,311.8,318.9,311.8z"/>
	<path class="st3" d="M337,295.1V116.4c0,0-3,3.9-11.7,12.9v178.1C334.5,302.2,337,295.1,337,295.1z"/>
	<ellipse class="st4" cx="262" cy="97.9" rx="81" ry="48.7"/>
</g>
<g>
	<g>
		<polygon class="st5" points="249.5,229.3 249.5,328.5 168.5,373.3 168.5,279 168.8,278.8 		"/>
		<line class="st6" x1="168.5" y1="373.3" x2="87.5" y2="326"/>
		<path class="st5" d="M249.5,228.8l-80.7,49.6l-81.3-50c16-9.3,31.9-18.6,47.8-28c11.1-6.5,22.1-12.9,33.2-19.4L249.5,228.8z"/>
		<line class="st6" x1="87.5" y1="228.3" x2="87.5" y2="326"/>
	</g>
	<line class="st0" x1="249.5" y1="229.3" x2="160.3" y2="283.6"/>
	<polygon class="st7" points="249.5,303 236.7,335.6 225.4,341.8 249.5,289.3 	"/>
	<polygon class="st7" points="249.5,282.3 221,344.3 199.1,356.4 249.5,261.7 	"/>
</g>
<line class="st8" x1="704" y1="387.1" x2="737.8" y2="373.3"/>
<path class="st9" d="M415,354c0,19.9-43,36.1-96.1,36.1s-96.1-16.1-96.1-36.1l8.8-15.1l87.3-150.3l87.3,150.3L415,354z"/>
<path class="st10" d="M397.8,373.9c0,0-11.9,7.3-33.7,11.2l-31.4-172.7l42.4,72.7L397.8,373.9z"/>
<path class="st10" d="M414.2,358.9c0,0-2.2,7.9-8.7,10.8L392.4,315L414.2,358.9z"/>
<path class="st8" d="M754.1,354.2c-1.3,2-2.6,3.9-3.9,5.9C748.6,362.6,751.2,358.6,754.1,354.2z"/>
</svg>
