<?xml version="1.0" encoding="utf-8"?>
<!-- Generator: Adobe Illustrator 21.1.0, SVG Export Plug-In . SVG Version: 6.00 Build 0)  -->
<svg version="1.1" id="Layer_1" xmlns="http://www.w3.org/2000/svg" xmlns:xlink="http://www.w3.org/1999/xlink" x="0px" y="0px"
	 viewBox="0 0 400 400" style="enable-background:new 0 0 400 400;" xml:space="preserve">
<style type="text/css">
	.st0{fill:#FF5000;stroke:#FF5000;stroke-miterlimit:10;}
	.st1{fill:none;}
	.st2{fill:#FFFFFF;}
	.st3{fill:#FCB546;}
	.st4{fill:#FEE6A0;}
	.st5{fill:#FFFFFF;stroke:#000000;stroke-width:3;stroke-miterlimit:10;}
	.st6{fill:none;stroke:#000000;stroke-width:3;stroke-miterlimit:10;}
	.st7{fill:#6ACCE6;}
	.st8{fill:none;stroke:#FFFFFF;stroke-width:3;stroke-miterlimit:10;}
	.st9{fill:none;stroke:#FFFFFF;stroke-miterlimit:10;}
</style>
<g id="Layer_1_1_">
	<circle class="st0" cx="200" cy="200" r="200"/>
</g>
<line class="st1" x1="189.5" y1="200" x2="210.5" y2="200"/>
<g>
	<g>
		<g>
			<polygon class="st2" points="320.5,113 320.5,237.5 331,268 341.5,237.5 341.5,113 			"/>
			<polygon points="328,259.4 334,259.4 331,268 			"/>
		</g>
		<g>
			<rect x="320.5" y="113" class="st3" width="21" height="124.5"/>
		</g>
	</g>
	<g>
		<rect x="79.5" y="268" class="st4" width="224" height="27"/>
		<line class="st5" x1="191.5" y1="268" x2="191.5" y2="281.5"/>
		<line class="st5" x1="251.5" y1="268" x2="251.5" y2="281.5"/>
		<line class="st5" x1="131.5" y1="268" x2="131.5" y2="281.5"/>
		<line class="st6" x1="105.5" y1="274.7" x2="105.5" y2="268"/>
		<line class="st6" x1="160.5" y1="274.7" x2="160.5" y2="268"/>
		<line class="st6" x1="221.5" y1="274.7" x2="221.5" y2="268"/>
		<line class="st6" x1="278.5" y1="274.7" x2="278.5" y2="268"/>
	</g>
	<g>
		<rect x="79.5" y="113" class="st7" width="224" height="137"/>
		<g>
			<rect x="95" y="128.5" class="st8" width="195" height="106"/>
			<line class="st9" x1="191.5" y1="128.5" x2="191.5" y2="234.5"/>
			<line class="st9" x1="290" y1="181.5" x2="95" y2="181.5"/>
			<line class="st9" x1="95" y1="208" x2="290" y2="208"/>
			<line class="st9" x1="143.8" y1="128.5" x2="143.8" y2="235.7"/>
			<line class="st9" x1="95" y1="155" x2="290" y2="155"/>
			<line class="st9" x1="240.8" y1="128.5" x2="240.8" y2="234.5"/>
		</g>
	</g>
</g>
</svg>
